<svg width="6134" height="4690" viewBox="0 0 6134 4690" fill="none" xmlns="http://www.w3.org/2000/svg">
<path d="M617 2382.46C617 1563.73 1302.84 912.023 2120.5 953.777L3804.24 1039.76C4542.08 1077.44 5121 1686.67 5121 2425.48C5121 3191.78 4499.78 3813 3733.48 3813H2047.54C1257.48 3813 617 3172.52 617 2382.46Z" fill="#FF0000"/>
<path d="M2613.91 4216V574C2613.91 518.772 2569.14 474 2513.91 474H2053.55C1998.33 474 1953.55 518.156 1953.55 573.384V1975.97C1953.55 2070.68 1833.86 2111.7 1775.09 2037.43C1194.12 1303.2 1094.81 1152.68 742.901 474L476.152 474L165.09 474C90.1079 474 41.3015 553.472 76.6187 619.616C435.331 1291.43 789.287 1816.64 1071.64 2150.7C1072.61 2151.85 1073.34 2152.74 1074.26 2153.93C1101.05 2188.46 1576.85 2798.61 1892.24 2975.77C1928.09 2995.91 1953.55 3032.34 1953.55 3073.46V4116.35C1953.55 4171.58 1998.33 4216 2053.55 4216H2613.91Z" fill="white"/>
<path fill-rule="evenodd" clip-rule="evenodd" d="M3185 574V4116C3185 4171.23 3140.23 4216 3085 4216H2624.64C2569.42 4216 2524.64 4171.23 2524.64 4116V3044.77C2524.64 3019.44 2515.03 2995.06 2497.75 2976.54L2231.68 2691.47C2185.82 2642.33 1998.06 2986.53 1964.5 3044.77L1232.78 4165.93C1214.93 4196.91 1181.9 4216 1146.14 4216H506C450.771 4216 428.943 4177.76 457.358 4130.4L1606.55 2215.1C1628.57 2178.39 1625.59 2130.61 1598.47 2097.48C1323.85 1762.07 987.917 1256.78 647.708 619.616C612.391 553.472 660.603 474 735.585 474L2137.5 474V513.5C2137.5 568.728 2182.27 613.5 2237.5 613.5H2443.67C2454.16 613.5 2464.58 611.85 2474.56 608.609L2873.94 478.891C2883.92 475.65 2894.34 474 2904.83 474H3085C3140.23 474 3185 518.772 3185 574ZM2524.64 1059V2262.46C2107.33 1736.95 1898.39 1471.91 1727.12 1208.86C1684.7 1143.69 1732.41 1059 1810.17 1059H2524.64Z" fill="black"/>
<path d="M1954 672.918V1119.06C1954 1174.29 1998.77 1219 2054 1219H2425C2480.23 1219 2525 1174.23 2525 1119V1012.1C2525 1009.7 2525.06 1007.57 2525.28 1005.18C2529.01 965.036 2573.34 573.062 2892.5 473H2153.85C2043.39 473 1954 562.462 1954 672.918Z" fill="white"/>
<path d="M2959 3886V574C2959 518.772 3003.77 474 3059 474H3619.36V1975.97C3619.36 2070.68 3739.06 2111.7 3797.82 2037.43C4362.99 1323.17 4472.34 1161.3 4801.84 528.231C4819.08 495.101 4854.1 474 4891.44 474L5096.75 474L5407.82 474C5482.8 474 5531.61 553.472 5496.29 619.616C5156.08 1256.78 4820.15 1762.07 4545.53 2097.48C4518.41 2130.61 4515.43 2178.39 4537.45 2215.1L5686.64 4130.4C5715.06 4177.76 5693.23 4216 5638 4216H4997.86C4962.1 4216 4929.07 4196.91 4911.22 4165.93L4072.07 2709.77C4038.5 2651.53 3958.18 2642.33 3912.32 2691.47L3646.25 2976.54C3628.97 2995.06 3619.36 3019.44 3619.36 3044.77V4116C3619.36 4171.23 3574.58 4216 3519.36 4216H3289C3106.75 4216 2959 4068.25 2959 3886Z" fill="black"/>
<path d="M4238 4216H3436.5C3263.08 4216 3122.5 4075.42 3122.5 3902C3122.5 3728.58 3263.08 3588 3436.5 3588H3655.63C4065.84 3588 4322.36 3144.1 4117.54 2788.68L4110.39 2776.27C4057.88 2685.16 3932.09 2671.06 3860.71 2748.29C3539.6 3095.75 2959 2868.55 2959 2395.43V1134.36C2959 769.652 3254.65 474 3619.36 474H3970.5C4132.32 474 4263.5 605.181 4263.5 767C4263.5 928.819 4132.32 1060 3970.5 1060H3941.43C3763.55 1060 3619.36 1204.19 3619.36 1382.07V1943.37C3619.36 2048.77 3786.98 2051.25 3852.28 1968.52C4015.31 1761.95 4303.22 1824.3 4438.48 2050.02L4499.83 2152.4L4966.94 2930.9C5393.16 3641.27 5066.43 4216 4238 4216Z" fill="white"/>
<path d="M3519.36 4216H2959V3105.35C2959 3050.13 3003.77 3005.35 3059 3005.35H3519.36C3574.58 3005.35 3619.36 3050.13 3619.36 3105.35V4116C3619.36 4171.23 3574.58 4216 3519.36 4216Z" fill="black"/>
</svg>
